<svg version="1.1" id="Layer_1" xmlns="http://www.w3.org/2000/svg" xmlns:xlink="http://www.w3.org/1999/xlink" x="0px" y="0px"
	 width="100%" viewBox="0 0 1024 1024" enable-background="new 0 0 1024 1024" xml:space="preserve">
<path fill="#000000" opacity="1.000000" stroke="none" 
	d="
M489.423706,717.536865 
	C477.115784,698.679932 465.291229,679.916260 451.734131,662.369263 
	C437.468842,643.905701 441.444092,647.128967 420.087006,649.816895 
	C378.181305,655.091003 336.395813,661.341431 294.597107,667.438110 
	C260.694763,672.383057 226.846619,677.699280 192.971695,682.832764 
	C190.546158,683.200317 188.098297,683.420776 185.660828,683.709595 
	C185.474365,683.221558 185.287918,682.733521 185.101456,682.245483 
	C358.370697,593.067078 531.639954,503.888641 704.909180,414.710205 
	C705.279663,415.085419 705.650085,415.460632 706.020569,415.835846 
	C644.244934,532.163818 582.469238,648.491760 520.049866,766.031921 
	C509.417542,749.192566 499.519623,733.516418 489.423706,717.536865 
z"/>
<path fill="#000000" opacity="1.000000" stroke="none" 
	d="
M754.250977,302.746887 
	C794.882568,343.106110 821.829895,390.790771 834.669067,446.255432 
	C842.193848,478.762054 844.177734,511.628052 840.498413,544.912537 
	C834.198853,601.900146 813.391357,652.919800 777.585022,697.509277 
	C736.077209,749.198730 682.880310,783.156250 618.495483,799.438660 
	C595.300232,805.304626 571.780579,808.377747 547.858826,808.326233 
	C546.116638,808.322449 544.218689,808.937683 541.988525,807.115173 
	C641.767761,801.371765 719.567017,757.863342 773.512878,674.031250 
	C803.687439,627.139771 817.679321,575.029114 816.283447,519.362610 
	C814.524170,449.205505 790.092468,387.522552 742.639099,335.632996 
	C695.199829,283.759064 636.039551,253.634644 566.293640,245.635635 
	C513.715942,239.605591 463.011536,247.883560 414.978943,270.695129 
	C366.998199,293.482056 328.365631,327.115662 299.248810,371.495941 
	C270.168793,415.820129 255.148056,464.709320 253.670990,518.867676 
	C245.183487,503.711609 262.696747,421.927917 281.569611,383.699005 
	C302.445465,341.412872 331.590240,305.980591 369.163696,277.459564 
	C485.000549,189.530853 651.350525,200.342377 754.250977,302.746887 
z"/>
</svg>